HIERARCHY
ROOT root
{
	OFFSET 0.000000 0.000000 0.000000
	CHANNELS 6 Xposition Yposition Zposition Zrotation Yrotation Xrotation
	JOINT lhip
	{
		OFFSET 0.058581 -0.082280 -0.017664
		CHANNELS 3 Zrotation Yrotation Xrotation
		JOINT lknee
		{
			OFFSET 0.043451 -0.386469 0.008037
			CHANNELS 3 Zrotation Yrotation Xrotation
			JOINT lankle
			{
				OFFSET -0.014790 -0.426874 -0.037428
				CHANNELS 3 Zrotation Yrotation Xrotation
				JOINT ltoe
				{
					OFFSET 0.041054 -0.060286 0.122042
					CHANNELS 3 Zrotation Yrotation Xrotation
					End Site
					{
						OFFSET 0.000000 0.000000 0.000000
					}
				}
			}
		}
	}
	JOINT rhip
	{
		OFFSET -0.060310 -0.090513 -0.013543
		CHANNELS 3 Zrotation Yrotation Xrotation
		JOINT rknee
		{
			OFFSET -0.043257 -0.383688 -0.004843
			CHANNELS 3 Zrotation Yrotation Xrotation
			JOINT rankle
			{
				OFFSET 0.019056 -0.420046 -0.034562
				CHANNELS 3 Zrotation Yrotation Xrotation
				JOINT rtoe
				{
					OFFSET -0.034840 -0.062106 0.130323
					CHANNELS 3 Zrotation Yrotation Xrotation
					End Site
					{
						OFFSET 0.000000 0.000000 0.000000
					}
				}
			}
		}
	}
	JOINT lowerback
	{
		OFFSET 0.004439 0.124404 -0.038385
		CHANNELS 3 Zrotation Yrotation Xrotation
		JOINT upperback
		{
			OFFSET 0.004488 0.137956 0.026820
			CHANNELS 3 Zrotation Yrotation Xrotation
			JOINT chest
			{
				OFFSET -0.002265 0.056032 0.002855
				CHANNELS 3 Zrotation Yrotation Xrotation
				JOINT lowerneck
				{
					OFFSET -0.013390 0.211636 -0.033468
					CHANNELS 3 Zrotation Yrotation Xrotation
					JOINT upperneck
					{
						OFFSET 0.010113 0.088937 0.050410
						CHANNELS 3 Zrotation Yrotation Xrotation
						End Site
						{
							OFFSET 0.000000 0.000000 0.000000
						}
					}
				}
				JOINT lclavicle
				{
					OFFSET 0.071702 0.114000 -0.018898
					CHANNELS 3 Zrotation Yrotation Xrotation
					JOINT lshoulder
					{
						OFFSET 0.122921 0.045205 -0.019046
						CHANNELS 3 Zrotation Yrotation Xrotation
						JOINT lelbow
						{
							OFFSET 0.255332 -0.015649 -0.022946
							CHANNELS 3 Zrotation Yrotation Xrotation
							JOINT lwrist
							{
								OFFSET 0.265709 0.012698 -0.007375
								CHANNELS 3 Zrotation Yrotation Xrotation
								End Site
								{
									OFFSET 0.000000 0.000000 0.000000
								}
							}
						}
					}
				}
				JOINT rclavicle
				{
					OFFSET -0.082954 0.112472 -0.023707
					CHANNELS 3 Zrotation Yrotation Xrotation
					JOINT rshoulder
					{
						OFFSET -0.113228 0.046853 -0.008472
						CHANNELS 3 Zrotation Yrotation Xrotation
						JOINT relbow
						{
							OFFSET -0.260127 -0.014369 -0.031269
							CHANNELS 3 Zrotation Yrotation Xrotation
							JOINT rwrist
							{
								OFFSET -0.269108 0.006794 -0.006027
								CHANNELS 3 Zrotation Yrotation Xrotation
								End Site
								{
									OFFSET 0.000000 0.000000 0.000000
								}
							}
						}
					}
				}
			}
		}
	}
}
MOTION
Frames: 8
Frame Time: 0.033333
-1.875914 0.633899 1.002543 -28.175426 -1.144678 86.367702 -1.153116 -1.928663 0.330778 -4.666649 -15.072188 9.761258 3.535555 7.393181 -11.252977 0.000000 -0.000000 0.000000 -7.149632 0.030544 -14.687098 0.878380 3.405819 33.221730 3.898806 -6.507333 -13.061926 0.000000 -0.000000 0.000000 -1.568772 -1.203421 9.528190 1.344077 -2.256609 -0.042971 -1.273298 -1.432769 0.875406 1.749606 -5.019857 -12.637474 0.979422 -13.152620 -3.270367 -27.021193 -9.931543 0.740362 -52.493232 -15.148166 13.285578 -1.131520 -25.276287 14.668325 -5.156124 -2.800455 3.022612 27.576412 7.173982 2.766132 57.981834 0.358176 13.619876 -13.576223 21.246837 -0.007408 7.585654 -0.486120 1.723155 
-1.884079 0.631934 1.002501 -21.244719 -1.180705 86.924741 -0.206046 -3.451665 -1.155777 -5.759281 -18.110123 10.689259 2.516087 5.593513 -11.124583 0.000000 -0.000000 0.000000 -7.829926 1.882217 -13.395149 2.464085 9.351406 28.556687 4.938374 -2.769831 -14.135364 0.000000 -0.000000 0.000000 -1.438103 -1.324743 9.000406 1.548130 -2.851394 -0.332499 -1.094939 -1.422271 0.733285 1.238793 2.921639 -13.578953 -0.402738 -5.781153 -2.812584 -27.090168 -9.560558 0.144636 -51.986402 -14.503664 13.843465 -2.061906 -25.279527 15.658322 -4.244763 -3.672234 2.915713 27.618416 5.458703 3.431431 57.938209 0.211154 13.830781 -13.263727 22.125089 -0.602681 7.691832 0.247340 -0.945896 
-1.893822 0.629129 1.002685 -14.238905 -1.167481 86.937971 0.674369 -4.852718 -2.270915 -6.818895 -21.241908 11.982717 1.773235 3.541083 -11.122554 0.000000 -0.000000 0.000000 -8.179431 3.652205 -11.277491 3.313959 13.967792 25.382052 5.783844 -0.237145 -15.230588 0.000000 -0.000000 0.000000 -1.108507 -1.059658 8.651337 1.512318 -3.274242 0.082962 -0.826431 -1.596849 0.552566 0.384519 11.083089 -14.622005 -1.603762 2.156062 -3.137566 -26.769469 -9.767142 0.151078 -51.214547 -13.832742 14.020272 -2.646702 -25.966233 15.907583 -3.193309 -4.827549 1.616142 27.500450 4.577281 4.421088 57.555349 0.645870 13.696669 -13.471459 22.510105 -1.745553 7.332927 0.930420 -3.451265 
-1.905053 0.627262 1.002489 -7.017783 -0.869295 86.323313 1.592628 -6.697127 -3.113991 -7.575912 -23.950485 13.502758 0.791380 1.831448 -10.678190 0.000000 -0.000000 0.000000 -7.694092 4.995940 -8.141934 2.950771 16.121110 23.546429 6.308643 1.024307 -15.846702 0.000000 -0.000000 0.000000 -0.640794 -0.417366 9.098745 1.372805 -3.569664 0.649257 -0.230634 -1.716832 0.416216 -0.624791 18.874591 -15.566974 -2.819753 10.205598 -4.183962 -26.218930 -10.832177 0.157094 -50.692290 -13.454707 14.118098 -2.136507 -26.132875 15.457924 -1.954455 -5.619848 0.544222 26.892547 4.647182 5.466201 57.398482 1.451793 13.403280 -14.654273 21.729592 -3.099051 6.618973 1.498677 -5.103506 
-1.916147 0.628031 1.001528 0.715175 -0.981623 86.016301 2.346337 -8.487515 -5.284190 -9.425291 -26.243500 16.133534 0.507622 -0.328339 -10.328203 0.000000 -0.000000 0.000000 -7.382356 4.844369 -5.165264 2.823448 16.707374 22.804502 5.801880 0.924206 -16.428662 0.000000 -0.000000 0.000000 -0.632818 -0.202346 9.867069 1.347343 -3.962147 0.333020 0.348071 -1.502713 0.629497 -1.761345 25.579684 -16.444815 -4.241846 17.452217 -5.159597 -25.718297 -11.354772 -0.336351 -50.183704 -13.302891 13.517867 -1.556542 -26.315012 15.724981 -1.249134 -6.007494 -0.356443 26.027892 4.764812 6.437883 56.841290 2.152424 13.045821 -15.179824 21.204889 -3.337212 6.097504 1.845620 -5.666356 
-1.929847 0.628293 1.000639 7.373479 -1.095967 85.224033 2.592978 -9.789478 -6.213214 -9.902991 -28.864694 17.613290 -2.419266 -2.032580 -10.935549 0.000000 -0.000000 0.000000 -5.951583 4.232856 -1.352561 1.048984 15.236508 19.895393 6.111132 -0.241910 -16.511577 0.000000 -0.000000 0.000000 -0.690758 1.933241 10.605153 1.792624 -4.452513 0.943188 0.650759 -0.873951 -0.035394 -2.432210 30.946540 -14.808346 -6.090784 22.633946 -7.308069 -26.060862 -13.901522 1.462155 -47.953729 -14.047899 13.724348 -1.121465 -24.661937 13.307309 5.173415 -9.998362 -3.788580 25.102045 5.555335 6.894974 56.544944 0.817972 12.972223 -16.311167 20.798493 -5.678712 -1.189400 4.380714 -6.349019 
-1.943852 0.632032 0.999205 13.628245 -1.209271 85.989122 3.608266 -10.826281 -9.579297 -11.262450 -29.732987 19.201592 -3.990093 -4.463282 -9.315607 0.000000 -0.000000 0.000000 -5.254258 1.342995 -0.234028 0.416905 12.600380 17.582229 5.183189 -1.634318 -17.281710 0.000000 -0.000000 0.000000 -0.268459 3.633757 10.603200 1.378258 -4.487905 0.386006 0.959278 -0.580975 -0.146114 -3.246763 33.658811 -14.908833 -6.526285 25.907883 -7.690002 -25.584365 -14.259117 0.520426 -47.379705 -14.606721 13.193658 -0.385667 -23.366172 11.821828 7.434612 -10.187672 -4.543140 24.529417 5.714597 7.396750 55.140987 0.397351 12.091017 -16.566976 20.884338 -6.322784 -2.253461 5.276769 -7.713821 
-1.959255 0.636126 0.998710 19.098291 -1.497599 86.534873 4.150202 -11.321602 -12.673016 -11.972222 -29.340662 20.953954 -4.530432 -5.513147 -8.011095 0.000000 -0.000000 0.000000 -4.564059 -1.592119 0.661282 -0.380304 10.128848 15.443915 4.399484 -2.683567 -17.565370 0.000000 -0.000000 0.000000 0.121637 5.389245 10.908806 0.836477 -4.177851 -0.116419 1.139399 -0.339278 -0.197903 -4.274625 34.168270 -15.040283 -6.491765 27.050042 -7.748159 -25.402796 -13.999911 -0.386755 -46.694045 -14.952902 11.973378 1.521642 -23.550587 10.030933 7.949261 -9.523314 -4.358661 23.958517 5.765020 7.807723 53.467055 0.005656 10.926099 -16.809654 21.458865 -6.551792 -2.194531 5.435006 -9.059581 
